<svg xmlns="http://www.w3.org/2000/svg" viewBox="0 0 448 512"><path fill="#fff" d="M380.9 97.1C339 55.1 283.2 32 224.4 32 100.3 32 0 132.3 0 256.5 0 302.7 12.5 347 36.1 386.3L24.1 480l96.8-25.5c37.3 20.4 79.5 31.1 123.5 31.1h.1c124.1 0 224.4-100.3 224.4-224.5 0-58.8-23.1-114.7-65-156.6zM224.4 438.7c-38.8 0-76.7-10.4-109.7-30.1l-7.9-4.7-57.4 15.1 15.3-56.3-5.1-8.1C42.1 324.5 32 291 32 256.5 32 150 117.9 64 224.4 64c57.9 0 112.4 22.6 153.3 63.6 40.9 40.9 63.5 95.1 63.5 152.9 0 107.5-87.6 194.8-193.8 194.8zm110.7-143.6c-6.1-3.1-36.1-17.8-41.7-19.8-5.6-2-9.7-3.1-13.8 3.1-4.1 6.1-15.8 19.8-19.3 23.9-3.6 4.1-7.1 4.6-13.2 1.5-6.1-3.1-25.6-9.4-48.7-30.1-18-16-30.1-35.8-33.6-41.9-3.6-6.1-.4-9.4 2.7-12.4 2.8-2.8 6.1-7.1 9.1-10.7 3-3.6 4.1-6.1 6.1-10.2 2-4.1 1-7.7-.5-10.7-1.6-3.1-13.8-33.3-18.9-45.6-5-12.1-10.1-10.4-13.8-10.6-3.6-.2-7.7-.2-11.8-.2s-10.7 1.5-16.3 7.7c-5.6 6.1-21.4 20.9-21.4 50.9s21.9 59.1 24.9 63.2c3.1 4.1 43.1 65.8 104.5 92.3 14.6 6.3 26 10.1 35 12.9 14.7 4.7 28.1 4 38.6 2.4 11.8-1.8 36.1-14.8 41.2-29.2 5.1-14.4 5.1-26.8 3.6-29.2-1.4-2.4-5.5-3.9-11.6-6.9z"/></svg>